<?xml version="1.0" standalone="no"?><!DOCTYPE svg PUBLIC "-//W3C//DTD SVG 1.1//EN" "http://www.w3.org/Graphics/SVG/1.1/DTD/svg11.dtd"><svg class="icon" width="200px" height="200.00px" viewBox="0 0 1024 1024" version="1.1" xmlns="http://www.w3.org/2000/svg"><path d="M625.4592 628.6336m-212.7872 0a212.7872 212.7872 0 1 0 425.5744 0 212.7872 212.7872 0 1 0-425.5744 0Z" fill="#FF8080" /><path d="M513.1264 917.76c-14.9504 0-29.9008-3.6352-43.6224-10.8544-91.392-48.2816-303.9744-177.0496-303.9744-329.728V326.0416c0-48.8448 33.2288-90.4192 80.7936-101.0688 55.9616-12.4928 159.0784-41.6256 221.2352-96.1024 28.5184-24.9856 70.9632-25.9072 100.9664-2.0992 63.6416 50.432 164.1472 82.0224 218.368 96.3072 45.312 11.9808 76.9024 53.1456 76.9024 100.096v253.952c0 133.3248-190.3616 262.7584-303.8208 328.0384-14.592 8.3968-30.72 12.5952-46.848 12.5952z m6.0416-757.0432c-6.4 0-12.8 2.2016-17.8176 6.656C434.176 226.2528 331.6736 258.3552 257.536 274.944c-24.0128 5.376-40.7552 26.368-40.7552 51.0976v251.0848c0 128.3072 211.7632 250.1632 276.6848 284.4672 12.9024 6.8096 28.2624 6.5024 41.0112-0.8192 65.28-37.5296 278.1696-168.9088 278.1696-283.648v-253.952c0-23.7568-15.9744-44.544-38.8096-50.5856-70.9632-18.7392-169.6768-52.2752-237.1072-105.6768a28.0832 28.0832 0 0 0-17.5616-6.1952z" fill="#512C56" /><path d="M485.12 629.4016c-16.384 0-31.8976-6.0416-44.032-17.2544l-88.1152-81.3568a25.58976 25.58976 0 0 1-1.4336-36.1984 25.58976 25.58976 0 0 1 36.1984-1.4336l88.1152 81.3568c3.7376 3.4304 7.8848 3.7376 10.0864 3.6352 2.1504-0.1024 6.2976-0.8704 9.6768-4.608l145.8688-164.096a25.6512 25.6512 0 0 1 36.1472-2.1504 25.64608 25.64608 0 0 1 2.1504 36.1472l-145.8688 164.096a64.59392 64.59392 0 0 1-45.4144 21.76c-1.1776 0.1024-2.2528 0.1024-3.3792 0.1024z" fill="#512C56" /></svg>