<?xml version="1.0" standalone="no"?><!DOCTYPE svg PUBLIC "-//W3C//DTD SVG 1.1//EN" "http://www.w3.org/Graphics/SVG/1.1/DTD/svg11.dtd"><svg class="icon" width="200px" height="200.00px" viewBox="0 0 1024 1024" version="1.1" xmlns="http://www.w3.org/2000/svg"><path d="M581.3248 633.8048m-212.7872 0a212.7872 212.7872 0 1 0 425.5744 0 212.7872 212.7872 0 1 0-425.5744 0Z" fill="#FF8080" /><path d="M512 907.7248c-195.6352 0-354.7648-159.1296-354.7648-354.7648 0-145.3056 90.9824-278.272 226.4064-330.8544a25.6 25.6 0 0 1 18.5344 47.7184C286.3104 314.8288 208.4352 428.5952 208.4352 552.96c0 167.3728 136.192 303.5648 303.5648 303.5648s303.5648-136.192 303.5648-303.5648c0-124.5184-74.5984-235.1104-190.1056-281.6512a25.63584 25.63584 0 0 1-14.1824-33.3312 25.62048 25.62048 0 0 1 33.3312-14.1824c134.9632 54.4256 222.1568 183.6032 222.1568 329.1648 0 195.6352-159.1296 354.7648-354.7648 354.7648z" fill="#512C56" /><path d="M512 589.6704c-14.1312 0-25.6-11.4688-25.6-25.6V143.36c0-14.1312 11.4688-25.6 25.6-25.6s25.6 11.4688 25.6 25.6v420.7104c0 14.1312-11.4688 25.6-25.6 25.6z" fill="#512C56" /></svg>