<?xml version="1.0" standalone="no"?><!DOCTYPE svg PUBLIC "-//W3C//DTD SVG 1.1//EN" "http://www.w3.org/Graphics/SVG/1.1/DTD/svg11.dtd"><svg class="icon" width="200px" height="200.00px" viewBox="0 0 1024 1024" version="1.1" xmlns="http://www.w3.org/2000/svg"><path d="M623.8208 603.8016m-212.7872 0a212.7872 212.7872 0 1 0 425.5744 0 212.7872 212.7872 0 1 0-425.5744 0Z" fill="#FF8080" /><path d="M301.6704 757.6576c-109.2608 0-198.144-88.8832-198.144-198.144 0-86.4256 56.1664-162.1504 136.5504-188.416-4.096-50.8928 4.8128-164.9664 151.2448-224.8704 80.8448-33.0752 163.4304-25.9072 232.448 20.224 47.104 31.4368 83.5584 79.3088 94.5152 121.4464 113.4592 11.1616 202.3936 107.1616 202.3936 223.5392 0 123.8528-100.7616 224.6144-224.6144 224.6144-10.2912 0-20.6336-0.7168-30.7712-2.0992a25.56416 25.56416 0 0 1-21.8624-28.8256c1.9456-14.0288 14.848-23.8592 28.8256-21.8624 7.8336 1.0752 15.872 1.6384 23.808 1.6384 95.6416 0 173.4144-77.7728 173.4144-173.4144s-77.7728-173.4144-173.4144-173.4144c-14.08 0-25.5488-11.3664-25.6-25.4976-0.1024-21.5552-24.064-69.376-75.1616-103.5264-38.5536-25.7024-101.8368-49.3056-184.6272-15.4112C260.7616 254.976 291.9424 378.2656 293.3248 383.488c1.8432 6.8608 0.768 14.1824-3.0208 20.224s-9.8816 10.1888-16.8448 11.5712c-68.8128 13.3632-118.784 74.0352-118.784 144.2816 0 81.0496 65.9456 146.944 146.944 146.944 16.0256 0 31.7952-2.56 46.848-7.6288a25.6 25.6 0 0 1 16.2816 48.5376c-20.2752 6.7584-41.5232 10.24-63.0784 10.24z" fill="#512C56" /><path d="M630.3744 765.952c-10.24-9.728-26.4704-9.2672-36.1984 0.9728l-55.4496 58.5216c0.256-306.7392 0-308.736-0.256-310.8352a25.59488 25.59488 0 0 0-28.6208-22.1696 25.6 25.6 0 0 0-22.3744 26.5728c0.2048 11.2128 0.1024 197.376 0 306.176L432.64 766.9248a25.57952 25.57952 0 0 0-36.1984-1.0752 25.58464 25.58464 0 0 0-1.0752 36.1984l99.0208 105.216c4.8128 5.12 11.5712 8.0384 18.5856 8.0384h0.0512c7.0144 0 13.7728-2.8672 18.5856-7.9872l99.6864-105.216a25.472 25.472 0 0 0-0.9216-36.1472z" fill="#512C56" /></svg>