<?xml version="1.0" standalone="no"?><!DOCTYPE svg PUBLIC "-//W3C//DTD SVG 1.1//EN" "http://www.w3.org/Graphics/SVG/1.1/DTD/svg11.dtd"><svg class="icon" width="200px" height="200.00px" viewBox="0 0 1024 1024" version="1.1" xmlns="http://www.w3.org/2000/svg"><path d="M608.4608 571.5456m-212.7872 0a212.7872 212.7872 0 1 0 425.5744 0 212.7872 212.7872 0 1 0-425.5744 0Z" fill="#FF8080" /><path d="M504.1664 717.9776c130.304 0 236.288-105.984 236.288-236.288V297.7792c0-130.304-105.984-236.288-236.288-236.288s-236.288 105.984-236.288 236.288v183.9616c0 130.2528 105.984 236.2368 236.288 236.2368z m0-51.2c-95.5904 0-174.4896-72.8576-184.1152-165.9392h368.1792c-9.5744 93.0816-88.4736 165.9392-184.064 165.9392z m0-554.0864c102.0416 0 185.088 83.0464 185.088 185.088v151.9104h-370.176V297.7792c0-102.0928 83.0464-185.088 185.088-185.088z" fill="#512C56" /><path d="M822.784 312.8832c-14.1312 0-25.6 11.4688-25.6 25.6v147.5584c0 161.5872-131.4304 293.0176-293.0176 293.0176s-293.0176-131.4304-293.0176-293.0176V338.4832c0-14.1312-11.4688-25.6-25.6-25.6s-25.6 11.4688-25.6 25.6v147.5584c0 181.76 141.6192 330.9568 320.3072 343.296v66.304H403.2512c-14.1312 0-25.6 11.4688-25.6 25.6s11.4688 25.6 25.6 25.6h205.2096c14.1312 0 25.6-11.4688 25.6-25.6s-11.4688-25.6-25.6-25.6H531.456v-66.56c177.0496-13.9776 316.928-162.4064 316.928-343.04V338.4832c0-14.1824-11.4688-25.6-25.6-25.6z" fill="#512C56" /></svg>